<svg width="1000" height="629" xmlns="http://www.w3.org/2000/svg" xmlns:xlink="http://www.w3.org/1999/xlink" overflow="hidden"><defs><clipPath id="clip0"><rect x="941" y="329" width="1000" height="629"/></clipPath></defs><g clip-path="url(#clip0)" transform="translate(-941 -329)"><path d="M1447.33 352C1567.87 352 1671.3 425.285 1715.47 529.729L1729.02 573.359 1737.26 572.528C1837.08 572.528 1918 653.446 1918 753.264 1918 840.604 1856.05 913.475 1773.68 930.328L1738.34 933.891 1738.34 934 1737.26 934 1447.34 934 1447.33 934 1447.33 934 1237.88 934 1092.38 934 1092.38 934 1092.38 934 1085.18 934 1085.18 933.274 1066.51 931.392C1008.01 919.422 964 867.662 964 805.625 964 761.312 986.452 722.244 1020.6 699.174L1030.77 693.654 1030.85 692.659C1041.97 619.859 1090.58 559.392 1156.36 531.571L1182.62 523.418 1206.02 480.299C1258.32 402.892 1346.88 352 1447.33 352Z" stroke="#00FFEA" stroke-width="45.8333" stroke-miterlimit="8" fill="#D9D9D9" fill-rule="evenodd"/></g></svg>