<svg width="1000" height="1050" xmlns="http://www.w3.org/2000/svg" xmlns:xlink="http://www.w3.org/1999/xlink" overflow="hidden"><defs><clipPath id="clip0"><rect x="2431" y="1306" width="1000" height="1050"/></clipPath></defs><g clip-path="url(#clip0)" transform="translate(-2431 -1306)"><path d="M2937.33 1329C3057.87 1329 3161.3 1402.29 3205.47 1506.73L3219.02 1550.36 3227.26 1549.53C3327.08 1549.53 3408 1630.45 3408 1730.26 3408 1817.6 3346.04 1890.47 3263.68 1907.33L3228.34 1910.89 3228.34 1911 3227.26 1911 2937.34 1911 2937.33 1911 2937.33 1911 2727.88 1911 2582.38 1911 2582.38 1911 2582.38 1911 2575.18 1911 2575.18 1910.27 2556.51 1908.39C2498.01 1896.42 2454 1844.66 2454 1782.62 2454 1738.31 2476.45 1699.24 2510.6 1676.17L2520.77 1670.65 2520.85 1669.66C2531.97 1596.86 2580.58 1536.39 2646.36 1508.57L2672.62 1500.42 2696.02 1457.3C2748.32 1379.89 2836.88 1329 2937.33 1329Z" stroke="#00FFEA" stroke-width="45.8333" stroke-miterlimit="8" fill="none" fill-rule="evenodd"/><path d="M2726 1978 2726 2123.03" stroke="#00FFEA" stroke-width="45.8333" stroke-miterlimit="8" fill="none" fill-rule="evenodd"/><path d="M2908 1978 2908 2123.03" stroke="#00FFEA" stroke-width="45.8333" stroke-miterlimit="8" fill="none" fill-rule="evenodd"/><path d="M3093 1978 3093 2123.03" stroke="#00FFEA" stroke-width="45.8333" stroke-miterlimit="8" fill="none" fill-rule="evenodd"/><path d="M2726 2187 2726 2332.03" stroke="#00FFEA" stroke-width="45.8333" stroke-miterlimit="8" fill="none" fill-rule="evenodd"/><path d="M2908 2187 2908 2332.03" stroke="#00FFEA" stroke-width="45.8333" stroke-miterlimit="8" fill="none" fill-rule="evenodd"/><path d="M3093 2187 3093 2332.03" stroke="#00FFEA" stroke-width="45.8333" stroke-miterlimit="8" fill="none" fill-rule="evenodd"/></g></svg>