<svg width="1000" height="1076" xmlns="http://www.w3.org/2000/svg" xmlns:xlink="http://www.w3.org/1999/xlink" overflow="hidden"><defs><clipPath id="clip0"><rect x="969" y="1306" width="1000" height="1076"/></clipPath></defs><g clip-path="url(#clip0)" transform="translate(-969 -1306)"><path d="M1475.33 1329C1595.87 1329 1699.3 1402.29 1743.47 1506.73L1757.02 1550.36 1765.26 1549.53C1865.08 1549.53 1946 1630.45 1946 1730.26 1946 1817.6 1884.05 1890.47 1801.68 1907.33L1766.34 1910.89 1766.34 1911 1765.26 1911 1475.34 1911 1475.33 1911 1475.33 1911 1265.88 1911 1120.38 1911 1120.38 1911 1120.38 1911 1113.18 1911 1113.18 1910.27 1094.51 1908.39C1036.01 1896.42 992 1844.66 992 1782.62 992 1738.31 1014.45 1699.24 1048.6 1676.17L1058.77 1670.65 1058.85 1669.66C1069.97 1596.86 1118.58 1536.39 1184.36 1508.57L1210.62 1500.42 1234.02 1457.3C1286.32 1379.89 1374.88 1329 1475.33 1329Z" stroke="#00FFEA" stroke-width="45.8333" stroke-miterlimit="8" fill="none" fill-rule="evenodd"/><path d="M0 0 164.665 353.125" stroke="#00FFEA" stroke-width="45.8333" stroke-miterlimit="8" fill="none" fill-rule="evenodd" transform="matrix(-1 0 0 1 1254.67 2005)"/><path d="M0 0 164.665 353.125" stroke="#00FFEA" stroke-width="45.8333" stroke-miterlimit="8" fill="none" fill-rule="evenodd" transform="matrix(-1 0 0 1 1478.67 2005)"/><path d="M0 0 164.665 353.125" stroke="#00FFEA" stroke-width="45.8333" stroke-miterlimit="8" fill="none" fill-rule="evenodd" transform="matrix(-1 0 0 1 1705.67 2005)"/></g></svg>