<svg width="670" height="989" xmlns="http://www.w3.org/2000/svg" xmlns:xlink="http://www.w3.org/1999/xlink" overflow="hidden"><defs><clipPath id="clip0"><rect x="1111" y="157" width="670" height="989"/></clipPath></defs><g clip-path="url(#clip0)" transform="translate(-1111 -157)"><path d="M1446 180C1594.03 180 1714.02 300.196 1714.02 448.466 1714.02 485.533 1706.52 520.846 1692.96 552.965L1670.56 594.295 1704.72 635.755C1738.36 685.633 1758 745.761 1758 810.485 1758 983.082 1618.31 1123 1446 1123 1273.69 1123 1134 983.082 1134 810.485 1134 745.761 1153.64 685.633 1187.28 635.755L1221.44 594.295 1199.04 552.965C1185.48 520.846 1177.98 485.533 1177.98 448.466 1177.98 300.196 1297.97 180 1446 180Z" stroke="#00FFEA" stroke-width="45.8333" stroke-miterlimit="8" fill="none" fill-rule="evenodd"/><path d="M1288 446.5C1288 424.685 1305.68 407 1327.5 407 1349.32 407 1367 424.685 1367 446.5 1367 468.315 1349.32 486 1327.5 486 1305.68 486 1288 468.315 1288 446.5Z" fill="#00FFEA" fill-rule="evenodd"/><path d="M1521 446.5C1521 424.685 1538.91 407 1561 407 1583.09 407 1601 424.685 1601 446.5 1601 468.315 1583.09 486 1561 486 1538.91 486 1521 468.315 1521 446.5Z" fill="#00FFEA" fill-rule="evenodd"/></g></svg>