<svg width="1000" height="1087" xmlns="http://www.w3.org/2000/svg" xmlns:xlink="http://www.w3.org/1999/xlink" overflow="hidden"><defs><clipPath id="clip0"><rect x="2272" y="1306" width="1000" height="1087"/></clipPath></defs><g clip-path="url(#clip0)" transform="translate(-2272 -1306)"><path d="M2778.33 1329C2898.87 1329 3002.3 1402.29 3046.47 1506.73L3060.02 1550.36 3068.26 1549.53C3168.08 1549.53 3249 1630.45 3249 1730.26 3249 1817.6 3187.05 1890.47 3104.68 1907.33L3069.34 1910.89 3069.34 1911 3068.26 1911 2778.34 1911 2778.33 1911 2778.33 1911 2568.88 1911 2423.38 1911 2423.38 1911 2423.38 1911 2416.18 1911 2416.18 1910.27 2397.51 1908.39C2339.01 1896.42 2295 1844.66 2295 1782.62 2295 1738.31 2317.45 1699.24 2351.6 1676.17L2361.77 1670.65 2361.85 1669.66C2372.97 1596.86 2421.58 1536.39 2487.36 1508.57L2513.62 1500.42 2537.02 1457.3C2589.32 1379.89 2677.88 1329 2778.33 1329Z" stroke="#00FFEA" stroke-width="45.8333" stroke-miterlimit="8" fill="none" fill-rule="evenodd"/><path d="M2858.04 1963 2739.7 2146.68 2868 2146.68 2542.96 2393 2661.3 2209.32 2533 2209.32Z" fill="#00FFEA" fill-rule="evenodd"/></g></svg>