<svg width="1124" height="1123" xmlns="http://www.w3.org/2000/svg" xmlns:xlink="http://www.w3.org/1999/xlink" overflow="hidden"><defs><clipPath id="clip0"><rect x="2199" y="55" width="1124" height="1123"/></clipPath></defs><g clip-path="url(#clip0)" transform="translate(-2199 -55)"><path d="M2533 605.5C2533 472.123 2640 364 2772 364 2904 364 3011 472.123 3011 605.5 3011 738.877 2904 847 2772 847 2640 847 2533 738.877 2533 605.5Z" stroke="#00FFEA" stroke-width="45.8333" stroke-miterlimit="8" fill="none" fill-rule="evenodd"/><path d="M2772 55 2772 323.927" stroke="#00FFEA" stroke-width="45.8333" stroke-miterlimit="8" fill="none" fill-rule="evenodd"/><path d="M2772 886 2772 1154.93" stroke="#00FFEA" stroke-width="45.8333" stroke-miterlimit="8" fill="none" fill-rule="evenodd"/><path d="M3322.17 605 3056 605" stroke="#00FFEA" stroke-width="45.8333" stroke-miterlimit="8" fill="none" fill-rule="evenodd"/><path d="M2488.17 605 2222 605" stroke="#00FFEA" stroke-width="45.8333" stroke-miterlimit="8" fill="none" fill-rule="evenodd"/><path d="M3149.68 190.542 2961.47 378.754" stroke="#00FFEA" stroke-width="45.8333" stroke-miterlimit="8" fill="none" fill-rule="evenodd"/><path d="M2532.73 752.489 2344.52 940.701" stroke="#00FFEA" stroke-width="45.8333" stroke-miterlimit="8" fill="none" fill-rule="evenodd"/><path d="M2583 379.727 2392.84 189.568" stroke="#00FFEA" stroke-width="45.8333" stroke-miterlimit="8" fill="none" fill-rule="evenodd"/><path d="M3199.95 941.676 3009.79 751.516" stroke="#00FFEA" stroke-width="45.8333" stroke-miterlimit="8" fill="none" fill-rule="evenodd"/></g></svg>